<mxfile host="65bd71144e">
    <diagram name="P치gina-1" id="2nRwC4AiCb8U7kTkDGeM">
        <mxGraphModel dx="978" dy="692" grid="1" gridSize="10" guides="1" tooltips="1" connect="1" arrows="1" fold="1" page="1" pageScale="1" pageWidth="850" pageHeight="1100" math="0" shadow="0">
            <root>
                <mxCell id="0"/>
                <mxCell id="1" parent="0"/>
                <mxCell id="4xxRc0FwJ2M22CgaKZjk-6" style="edgeStyle=orthogonalEdgeStyle;rounded=0;orthogonalLoop=1;jettySize=auto;html=1;exitX=1;exitY=0.5;exitDx=0;exitDy=0;entryX=0;entryY=0.5;entryDx=0;entryDy=0;" parent="1" source="4xxRc0FwJ2M22CgaKZjk-1" target="4xxRc0FwJ2M22CgaKZjk-2" edge="1">
                    <mxGeometry relative="1" as="geometry"/>
                </mxCell>
                <mxCell id="4xxRc0FwJ2M22CgaKZjk-1" value="Lectura de Texto" style="rounded=1;whiteSpace=wrap;html=1;" parent="1" vertex="1">
                    <mxGeometry x="80" y="210" width="120" height="60" as="geometry"/>
                </mxCell>
                <mxCell id="4xxRc0FwJ2M22CgaKZjk-7" style="edgeStyle=orthogonalEdgeStyle;rounded=0;orthogonalLoop=1;jettySize=auto;html=1;exitX=1;exitY=0.5;exitDx=0;exitDy=0;entryX=0;entryY=0.5;entryDx=0;entryDy=0;" parent="1" source="4xxRc0FwJ2M22CgaKZjk-2" target="4xxRc0FwJ2M22CgaKZjk-3" edge="1">
                    <mxGeometry relative="1" as="geometry"/>
                </mxCell>
                <mxCell id="4xxRc0FwJ2M22CgaKZjk-2" value="Identificaci칩n de palabras clave" style="rounded=1;whiteSpace=wrap;html=1;" parent="1" vertex="1">
                    <mxGeometry x="280" y="210" width="120" height="60" as="geometry"/>
                </mxCell>
                <mxCell id="4xxRc0FwJ2M22CgaKZjk-8" style="edgeStyle=orthogonalEdgeStyle;rounded=0;orthogonalLoop=1;jettySize=auto;html=1;exitX=1;exitY=0.5;exitDx=0;exitDy=0;" parent="1" source="4xxRc0FwJ2M22CgaKZjk-3" target="4xxRc0FwJ2M22CgaKZjk-4" edge="1">
                    <mxGeometry relative="1" as="geometry"/>
                </mxCell>
                <mxCell id="4xxRc0FwJ2M22CgaKZjk-3" value="Extracci칩n del Contexto" style="rounded=1;whiteSpace=wrap;html=1;" parent="1" vertex="1">
                    <mxGeometry x="480" y="210" width="120" height="60" as="geometry"/>
                </mxCell>
                <mxCell id="4xxRc0FwJ2M22CgaKZjk-9" style="edgeStyle=orthogonalEdgeStyle;rounded=0;orthogonalLoop=1;jettySize=auto;html=1;exitX=1;exitY=0.5;exitDx=0;exitDy=0;" parent="1" source="4xxRc0FwJ2M22CgaKZjk-4" edge="1">
                    <mxGeometry relative="1" as="geometry">
                        <mxPoint x="850" y="240" as="targetPoint"/>
                    </mxGeometry>
                </mxCell>
                <mxCell id="4xxRc0FwJ2M22CgaKZjk-4" value="Ordenamiento y visualizaci칩n del resultado" style="rounded=1;whiteSpace=wrap;html=1;" parent="1" vertex="1">
                    <mxGeometry x="680" y="210" width="120" height="60" as="geometry"/>
                </mxCell>
                <mxCell id="4xxRc0FwJ2M22CgaKZjk-5" value="" style="endArrow=classic;html=1;rounded=0;" parent="1" edge="1">
                    <mxGeometry width="50" height="50" relative="1" as="geometry">
                        <mxPoint x="20" y="240" as="sourcePoint"/>
                        <mxPoint x="80" y="240" as="targetPoint"/>
                    </mxGeometry>
                </mxCell>
                <mxCell id="4xxRc0FwJ2M22CgaKZjk-10" value="In&amp;nbsp;&lt;div&gt;(Text)&lt;/div&gt;" style="text;html=1;align=center;verticalAlign=middle;whiteSpace=wrap;rounded=0;" parent="1" vertex="1">
                    <mxGeometry x="11" y="210" width="60" height="30" as="geometry"/>
                </mxCell>
                <mxCell id="4xxRc0FwJ2M22CgaKZjk-11" value="String List" style="text;html=1;align=center;verticalAlign=middle;whiteSpace=wrap;rounded=0;" parent="1" vertex="1">
                    <mxGeometry x="210" y="210" width="60" height="30" as="geometry"/>
                </mxCell>
                <mxCell id="4xxRc0FwJ2M22CgaKZjk-12" value="String List" style="text;html=1;align=center;verticalAlign=middle;whiteSpace=wrap;rounded=0;" parent="1" vertex="1">
                    <mxGeometry x="410" y="210" width="60" height="30" as="geometry"/>
                </mxCell>
                <mxCell id="4xxRc0FwJ2M22CgaKZjk-13" value="String List" style="text;html=1;align=center;verticalAlign=middle;whiteSpace=wrap;rounded=0;" parent="1" vertex="1">
                    <mxGeometry x="610" y="210" width="60" height="30" as="geometry"/>
                </mxCell>
                <mxCell id="4xxRc0FwJ2M22CgaKZjk-14" value="Out&lt;div&gt;(Text)&lt;/div&gt;" style="text;html=1;align=center;verticalAlign=middle;whiteSpace=wrap;rounded=0;" parent="1" vertex="1">
                    <mxGeometry x="790" y="210" width="60" height="30" as="geometry"/>
                </mxCell>
                <mxCell id="2" value="Oscar&amp;nbsp;" style="text;html=1;align=center;verticalAlign=middle;whiteSpace=wrap;rounded=0;" vertex="1" parent="1">
                    <mxGeometry x="100" y="280" width="60" height="30" as="geometry"/>
                </mxCell>
                <mxCell id="3" value="Sofia&amp;nbsp;" style="text;html=1;align=center;verticalAlign=middle;whiteSpace=wrap;rounded=0;" vertex="1" parent="1">
                    <mxGeometry x="310" y="280" width="60" height="30" as="geometry"/>
                </mxCell>
                <mxCell id="4" value="Oscar&amp;nbsp;" style="text;html=1;align=center;verticalAlign=middle;whiteSpace=wrap;rounded=0;" vertex="1" parent="1">
                    <mxGeometry x="510" y="280" width="60" height="30" as="geometry"/>
                </mxCell>
                <mxCell id="5" value="Sofia&amp;nbsp;" style="text;html=1;align=center;verticalAlign=middle;whiteSpace=wrap;rounded=0;" vertex="1" parent="1">
                    <mxGeometry x="710" y="280" width="60" height="30" as="geometry"/>
                </mxCell>
            </root>
        </mxGraphModel>
    </diagram>
</mxfile>